# xmcd
#
# Track frame offsets:
#	150
#	23215
#	48543
#	71670
#	92105
#	111463
#	131798
#	150628
#	173578
#	193380
#
# Disc length: 2847 seconds
#
# Revision: 1
# Processed by: cddbd v1.5.1PL0 Copyright (c) Steve Scherf et al.
# Submitted via: CDex 1.50Beta5
#
DISCID=900b1d0a
DTITLE=ELLIS - 1991.11.21 MEMORY きっと、せつない
DYEAR=1991
DGENRE=Pop
TTITLE0=海猫ホテルへようこそ
TTITLE1=きっと、せつない
TTITLE2=千の夜と一つの朝
TTITLE3=I KNOW YOU
TTITLE4=あなたがそこにいるから
TTITLE5=マインド・トラフィック
TTITLE6=屋上のコンフェッション
TTITLE7=FLOWER GARDENER
TTITLE8=ROSE
TTITLE9=APOLOGY
EXTD=
EXTT0=
EXTT1=
EXTT2=
EXTT3=
EXTT4=
EXTT5=
EXTT6=
EXTT7=
EXTT8=
EXTT9=
PLAYORDER=
